<svg xmlns="http://www.w3.org/2000/svg" viewBox="0 0 512 512">
  <defs>
    <linearGradient id="bg" x1="0%" y1="0%" x2="100%" y2="100%">
      <stop offset="0%" style="stop-color:#064e3b"/>
      <stop offset="100%" style="stop-color:#0f766e"/>
    </linearGradient>
  </defs>
  <rect width="512" height="512" rx="64" fill="url(#bg)"/>
  <path d="M256 85c-43 0-80 21-101 53-21-11-48-11-69 0-32 16-53 48-53 85 0 64 53 117 117 117 21 0 43-5 59-16 16 11 37 16 59 16 64 0 117-53 117-117 0-37-21-69-53-85-21-11-48-11-69 0-21-32-58-53-101-53z" fill="#fbbf24" opacity="0.9"/>
  <circle cx="256" cy="267" r="43" fill="#fbbf24"/>
  <path d="M256 310v85M202 363l54-54 54 54" stroke="#fbbf24" stroke-width="11" stroke-linecap="round"/>
</svg>
